<svg version="1.1" preserveAspectRatio="none" xmlns="http://www.w3.org/2000/svg" width="500" height="500" viewBox="0 0 500 500"><rect width="100%" height="100%" fill="#FFFFFF" fill-opacity="1"/><svg viewBox="62.6735 259.5812 515.898 124" width="333" height="80.03907749206238" x="83.5px" y="209.9805px" xmlns="http://www.w3.org/2000/svg" xmlns:xlink="http://www.w3.org/1999/xlink" preserveAspectRatio="none"><defs></defs><style>.companyName {fill:#4D4D4D;fill-opacity:1;}.icon1 {fill:#FF834F;fill-opacity:1;}.icon2 {fill:#FF4949;fill-opacity:1;}.icon3 {fill:#FFAE78;fill-opacity:1;}.icon3-str {stroke:#FFAE78;stroke-opacity:1;}.shapeStroke-str {stroke:#313131;stroke-opacity:1;}</style><defs></defs><g opacity="1" transform="rotate(0 62.6735 271.5812)">
<svg width="100" height="100" x="62.6735" y="271.5812" version="1.1" preserveAspectRatio="none" viewBox="-1.7053018881978826e-13 0 48 48">
  <g transform="matrix(1 0 0 1 0 0)"><defs><g id="id-IptOCySn0"><g transform="translate(0,-1004.3622)"><path style="" d="m 24,1004.3622 a 23.999998,23.999998 0 0 0 -24,24 23.999998,23.999998 0 0 0 24,24 23.999998,23.999998 0 0 0 24,-24 23.999998,23.999998 0 0 0 -24,-24 z m 7.556641,12.9883 c 0.21035,-10e-5 0.317945,0.062 0.447265,0.207 0.12931,0.1445 0.249201,0.3882 0.332032,0.6738 l 1.542968,5.3223 c -0.96261,0.178 -4.681179,0.8047 -9.880859,0.8047 -5.19377,0 -8.910556,-0.6175 -9.878906,-0.7949 l 1.541015,-5.3203 c 0.0828,-0.2857 0.202612,-0.5311 0.332032,-0.6758 0.12942,-0.145 0.236935,-0.205 0.447265,-0.2051 l 15.117188,-0.012 z m -18.587891,3.4062 c 0.504,-0.019 0.503906,0.4251 0.503906,0.6914 l 0,1.1231 0.351563,0.3535 a 0.50005,0.50005 0 1 1 -0.707031,0.7051 l -0.417969,-0.4199 -2.222657,0.086 c -0.0031,-7e-4 -0.476562,0.017 -0.476562,-0.418 0,-0.5647 0.473716,-2.0264 1.478516,-2.0644 l 1.490234,-0.057 z m 23.5,0.1035 c 1.0048,-0.038 1.478516,1.3885 1.478516,1.9532 0,0.4352 -0.473463,0.4522 -0.476563,0.4531 l -2.298828,0.088 -0.34375,0.3437 a 0.50005,0.50005 0 1 1 -0.705078,-0.7089 l 0.349609,-0.3477 0,-0.9941 c 0,-0.2663 -9.3e-5,-0.7096 0.503906,-0.7286 l 1.492188,-0.058 z m -2.111328,3.6231 2.640625,2.5176 0,8.0234 c -0.003,0.2016 -0.132811,0.328 -0.300781,0.3281 l -4.791016,0 c -0.20738,-0.5812 -0.760003,-1.0041 -1.408203,-1.0039 l -13,0.01 c -0.64675,2e-4 -1.19774,0.4226 -1.40625,1.002 l -4.792969,0 c -0.16742,10e-5 -0.310281,-0.1349 -0.300781,-0.291 2.9e-4,-0.01 2.9e-4,-0.017 0,-0.027 l 0,-8.0293 2.664062,-2.5156 c 0.42004,0.082 4.536988,0.8613 10.335938,0.8613 5.84504,0 9.997135,-0.801 10.359375,-0.873 l 0,0 z m -3.859375,3.8633 -13,0.01 c -0.34111,-10e-4 -0.583113,0.3322 -0.476563,0.6562 l 1.300782,3.9903 c 0.0668,0.2057 0.258279,0.3452 0.474609,0.3457 l 10.400391,0 c 0.21705,4e-4 0.409572,-0.1393 0.476562,-0.3457 l 1.298828,-4.002 c 0.10462,-0.3226 -0.135459,-0.6536 -0.474609,-0.6543 z m 4.984375,0 0,0 c -0.01569,6e-4 -0.03128,0 -0.04687,0 -1.49648,0.185 -2.609477,0.7414 -3.341797,1.5527 -0.73232,0.8113 -1.063633,1.8526 -1.095703,2.9297 -0.008,0.2815 0.21844,0.5138 0.5,0.5137 l 4,0 c 0.27613,0 0.49997,-0.2239 0.5,-0.5 l 0,-0.9844 0,-3.0156 c 1.1e-4,-0.2824 -0.233415,-0.51 -0.515625,-0.5 z m -23.023438,0.01 c -0.26077,0.02 -0.461718,0.2384 -0.460937,0.5 l 0,3.0136 0,0.9864 c 3e-5,0.2761 0.223869,0.5 0.5,0.5 l 4,0 c 0.280769,0 0.5065,-0.231 0.5,-0.5117 -0.0217,-1.0935 -0.343542,-2.1371 -1.076172,-2.9454 -0.73265,-0.8084 -1.852171,-1.3533 -3.363281,-1.541 l -0.05078,0 c -0.0163,-2e-4 -0.03263,5e-4 -0.04883,0 l 0,0 z m 17.34961,0.9902 -0.324219,1 -10.972656,0.01 -0.326172,-1 11.623047,-0.01 z m 5.189453,0.1543 0,2.3672 0,0.4844 -2.810547,0 c 0.10484,-0.6525 0.222907,-1.3021 0.648438,-1.7735 0.456049,-0.5052 1.194299,-0.8631 2.162109,-1.0781 z m -22,0.01 c 0.98407,0.2151 1.730544,0.5685 2.183594,1.0684 0.42369,0.4675 0.537125,1.1222 0.634765,1.7851 l -2.818359,0 0,-0.4863 0,-2.3672 z m 16.160156,1.8418 -0.324219,1.002 -9.673828,0 -0.324218,-0.9922 10.322265,-0.01 z m 3.818359,5.0039 3.017579,0 0,1.2734 c 0,0.4182 -0.313111,0.7324 -0.712891,0.7325 l -1.572266,0 c -0.39983,2e-4 -0.714843,-0.3143 -0.714843,-0.7325 l 0,-1.1347 c 8.4e-4,-0.047 -0.0053,-0.094 -0.01758,-0.1387 z m -20.99414,0.01 3.015625,0 0,1.2656 c 0,0.4182 -0.315054,0.7324 -0.714844,0.7325 l -1.572265,0 c -0.39983,2e-4 -0.712891,-0.3143 -0.712891,-0.7325 l 0,-1.1347 c 7.4e-4,-0.045 -0.0053,-0.088 -0.01563,-0.1309 z" fill-rule="evenodd"></path></g></g></defs><use href="#id-IptOCySn0" class="icon1"></use></g>
</svg>
</g><g opacity="1" transform="rotate(0 200.6735 286.5812)">
<svg width="377.898" height="70" x="200.6735" y="286.5812" version="1.1" preserveAspectRatio="none" viewBox="3.32 -31.48 213.56 39.56">
  <g transform="matrix(1 0 0 1 0 0)" class="companyName"><path id="id-D6z1nYkh10" d="M9.76-5.20L25-5.20L25 0L3.32 0L3.32-28L24.48-28L24.48-22.80L9.76-22.80L9.76-16.72L22.76-16.72L22.76-11.68L9.76-11.68L9.76-5.20Z M38.24-21.84Q43.24-21.84 45.92-19.46Q48.60-17.08 48.60-12.28L48.60-12.28L48.60 0L42.76 0L42.76-2.68Q41 0.32 36.20 0.32L36.20 0.32Q33.72 0.32 31.90-0.52Q30.08-1.36 29.12-2.84Q28.16-4.32 28.16-6.20L28.16-6.20Q28.16-9.20 30.42-10.92Q32.68-12.64 37.40-12.64L37.40-12.64L42.36-12.64Q42.36-14.68 41.12-15.78Q39.88-16.88 37.40-16.88L37.40-16.88Q35.68-16.88 34.02-16.34Q32.36-15.80 31.20-14.88L31.20-14.88L28.96-19.24Q30.72-20.48 33.18-21.16Q35.64-21.84 38.24-21.84L38.24-21.84ZM37.76-3.88Q39.36-3.88 40.60-4.62Q41.84-5.36 42.36-6.80L42.36-6.80L42.36-9L38.08-9Q34.24-9 34.24-6.48L34.24-6.48Q34.24-5.28 35.18-4.58Q36.12-3.88 37.76-3.88L37.76-3.88Z M61.48 0.32Q58.80 0.32 56.24-0.34Q53.68-1 52.16-2L52.16-2L54.24-6.48Q55.68-5.56 57.72-4.98Q59.76-4.40 61.72-4.40L61.72-4.40Q65.68-4.40 65.68-6.36L65.68-6.36Q65.68-7.28 64.60-7.68Q63.52-8.08 61.28-8.36L61.28-8.36Q58.64-8.76 56.92-9.28Q55.20-9.80 53.94-11.12Q52.68-12.44 52.68-14.88L52.68-14.88Q52.68-16.92 53.86-18.50Q55.04-20.08 57.30-20.96Q59.56-21.84 62.64-21.84L62.64-21.84Q64.92-21.84 67.18-21.34Q69.44-20.84 70.92-19.96L70.92-19.96L68.84-15.52Q66-17.12 62.64-17.12L62.64-17.12Q60.64-17.12 59.64-16.56Q58.64-16 58.64-15.12L58.64-15.12Q58.64-14.12 59.72-13.72Q60.80-13.32 63.16-12.96L63.16-12.96Q65.80-12.52 67.48-12.02Q69.16-11.52 70.40-10.20Q71.64-8.88 71.64-6.52L71.64-6.52Q71.64-4.52 70.44-2.96Q69.24-1.40 66.94-0.54Q64.64 0.32 61.48 0.32L61.48 0.32Z M90.44-21.52L96.44-21.52L86.72 1.32Q85.24 5.04 83.06 6.56Q80.88 8.08 77.80 8.08L77.80 8.08Q76.12 8.08 74.48 7.56Q72.84 7.04 71.80 6.12L71.80 6.12L74.08 1.68Q74.80 2.32 75.74 2.68Q76.68 3.04 77.60 3.04L77.60 3.04Q78.88 3.04 79.68 2.42Q80.48 1.80 81.12 0.36L81.12 0.36L81.20 0.16L71.88-21.52L78.32-21.52L84.36-6.92L90.44-21.52Z M110.76 0L110.76-28L123.48-28Q128.04-28 131.54-26.26Q135.04-24.52 136.98-21.36Q138.92-18.20 138.92-14L138.92-14Q138.92-9.80 136.98-6.64Q135.04-3.48 131.54-1.74Q128.04 0 123.48 0L123.48 0L110.76 0ZM117.24-5.32L123.16-5.32Q127.36-5.32 129.86-7.66Q132.36-10 132.36-14L132.36-14Q132.36-18 129.86-20.34Q127.36-22.68 123.16-22.68L123.16-22.68L117.24-22.68L117.24-5.32Z M149.32-18.68Q150.44-20.24 152.34-21.04Q154.24-21.84 156.72-21.84L156.72-21.84L156.72-16.08Q155.68-16.16 155.32-16.16L155.32-16.16Q152.64-16.16 151.12-14.66Q149.60-13.16 149.60-10.16L149.60-10.16L149.60 0L143.36 0L143.36-21.52L149.32-21.52L149.32-18.68Z M160.44 0L160.44-21.52L166.68-21.52L166.68 0L160.44 0ZM163.56-24.52Q161.84-24.52 160.76-25.52Q159.68-26.52 159.68-28L159.68-28Q159.68-29.48 160.76-30.48Q161.84-31.48 163.56-31.48L163.56-31.48Q165.28-31.48 166.36-30.52Q167.44-29.56 167.44-28.12L167.44-28.12Q167.44-26.56 166.36-25.54Q165.28-24.52 163.56-24.52L163.56-24.52Z M187.84-21.52L193.84-21.52L184.76 0L178.32 0L169.28-21.52L175.72-21.52L181.68-6.88L187.84-21.52Z M216.88-10.68Q216.88-10.56 216.76-9L216.76-9L200.48-9Q200.92-7 202.56-5.84Q204.20-4.68 206.64-4.68L206.64-4.68Q208.32-4.68 209.62-5.18Q210.92-5.68 212.04-6.76L212.04-6.76L215.36-3.16Q212.32 0.32 206.48 0.32L206.48 0.32Q202.84 0.32 200.04-1.10Q197.24-2.52 195.72-5.04Q194.20-7.56 194.20-10.76L194.20-10.76Q194.20-13.92 195.70-16.46Q197.20-19 199.82-20.42Q202.44-21.84 205.68-21.84L205.68-21.84Q208.84-21.84 211.40-20.48Q213.96-19.12 215.42-16.58Q216.88-14.04 216.88-10.68L216.88-10.68ZM205.72-17.12Q203.60-17.12 202.16-15.92Q200.72-14.72 200.40-12.64L200.40-12.64L211-12.64Q210.68-14.68 209.24-15.90Q207.80-17.12 205.72-17.12L205.72-17.12Z"/></g>
</svg>
</g><g opacity="1" transform="rotate(0 180.6735 259.5812)">
<svg width="4" height="124" x="180.6735" y="259.5812" version="1.1" preserveAspectRatio="none" viewBox="0 0 4 124">
  <defs><rect x="0" y="0" width="4" height="124" rx="0px" ry="0px" id="id-tBXipXk0b1667936772128"></rect></defs><use class="companyName shapeStroke-str" style="stroke-width:0;" href="#id-tBXipXk0b1667936772128"></use>
</svg>
</g></svg></svg>